<?xml version="1.0" encoding="utf-8"?>
<!-- Generator: Adobe Illustrator 22.0.1, SVG Export Plug-In . SVG Version: 6.00 Build 0)  -->
<svg version="1.1" id="Calque_1" xmlns="http://www.w3.org/2000/svg" xmlns:xlink="http://www.w3.org/1999/xlink" x="0px" y="0px"
	 viewBox="0 0 311 75" style="enable-background:new 0 0 311 75;" xml:space="preserve">
<style type="text/css">
	.st0{fill:none;stroke:#010202;}
	.st1{fill:#010202;}
</style>
<polyline class="st0" points="80.8,67 0.4,67 0.4,0.5 310.6,0.5 310.6,67 229.8,67 "/>
<g>
	<path class="st1" d="M87,71.8h1.1v-9.1H87v-0.2h7.8v2.7h-0.2v-0.2c0-1.2-1-2.3-2.9-2.3h-1.4v4.2H91c1.1,0,1.7-0.5,1.7-1.7v-0.2H93
		v4.3h-0.2V69c0-1.3-0.5-1.9-1.9-1.9h-0.6v4.7h1.4v0.2H87V71.8z"/>
	<path class="st1" d="M96.4,71.8h1.1v-9.1h-1.1v-0.2h4.5v0.2h-1.2v9.1h1.6c2.4,0,3-1.2,3-2.8v-0.3h0.2v3.3h-8V71.8z"/>
	<path class="st1" d="M106.6,71.8h1.1v-9.1h-1.1v-0.2h7.6v2.7H114V65c0-1.2-0.9-2.3-2.5-2.3h-1.6v4.2h0.9c0.9,0,1.4-0.5,1.4-1.8
		v-0.2h0.2v4.3h-0.2v-0.3c0-1-0.5-1.8-1.4-1.8h-0.9v4.7h2c2.2,0,2.6-1.9,2.6-2.6V69h0.2v3.1h-8V71.8z"/>
	<path class="st1" d="M116.7,62.4h4.3v0.2h-1.1v6c0,1.8,0.4,3.1,2.4,3.1c1.3,0,2.4-0.9,2.4-2.8v-5.2c0-0.8-0.2-1.1-0.9-1.1h-0.4
		v-0.2h2.7v0.2h-0.4c-0.5,0-0.7,0.4-0.7,1.1v5.1c0,2-1.1,3.3-3.6,3.3c-2.2,0-3.7-1.3-3.7-3.4v-6.2h-1.1V62.4z"/>
	<path class="st1" d="M127.8,71.8h1.1v-9.1h-1.1v-0.2h4.3c1.5,0,3.9,0.2,3.9,2.3c0,1.7-1.8,2.2-3.2,2.3v0c2,0.2,3,1,3,2.4
		c0,2.1,0.2,2.4,0.8,2.4c0.1,0,0.3-0.1,0.5-0.2l0.1,0.2c-0.5,0.4-1.1,0.5-1.7,0.5c-1.5,0-1.8-1-1.8-2.5c0-2.2-0.5-2.5-1.9-2.6h-0.7
		v4.6h1.1v0.2h-4.4V71.8z M131.1,66.9h0.8c1.6-0.1,2-0.7,1.9-2.4c0-1.7-0.5-1.9-1.7-1.9h-1V66.9z"/>
	<path class="st1" d="M138.9,71.8h1.1v-9.1h-1.1v-0.2h4.3v0.2h-1.1v9.1h1.1v0.2h-4.3V71.8z"/>
	<path class="st1" d="M145.7,68.4h0.2c0.3,1.5,1.4,3.6,3.2,3.6c1.2,0,2-0.7,2-1.9c0-3-5.5-0.8-5.5-4.9c0-1.8,1.2-2.9,3-2.9
		c1.4,0,1.8,0.7,2.4,0.7c0.4,0,0.4-0.4,0.4-0.5h0.2v3.1h-0.2c-0.3-1.4-1.1-3-2.8-3c-1,0-1.8,0.7-1.8,1.8c0,2.6,5.5,0.6,5.5,4.6
		c0,2.1-1.2,3.4-3.1,3.4c-1.2,0-2.3-0.7-2.9-0.7c-0.4,0-0.5,0.2-0.5,0.5h-0.2V68.4z"/>
	<path class="st1" d="M156.5,71.8h1.3v-9.1h-0.6c-1.8,0-2.2,1.2-2.4,2.7h-0.2v-3h8.6v3h-0.2c-0.2-1.5-0.7-2.7-2.4-2.7h-0.6v9.1h1.3
		v0.2h-4.7V71.8z"/>
	<path class="st1" d="M164.8,71.8h1.1v-9.1h-1.1v-0.2h7.6v2.7h-0.2V65c0-1.2-0.9-2.3-2.5-2.3h-1.6v4.2h0.9c0.9,0,1.4-0.5,1.4-1.8
		v-0.2h0.2v4.3h-0.2v-0.3c0-1-0.5-1.8-1.4-1.8h-0.9v4.7h2c2.2,0,2.6-1.9,2.6-2.6V69h0.2v3.1h-8V71.8z"/>
	<path class="st1" d="M180,71.8h1.1v-9.1H180v-0.2h4.9c2.4,0,3.5,0.9,3.5,2.6c0,1.7-1.6,2.7-3.7,2.7c-0.6,0-1.1,0-1.5-0.1v4.1h1.4
		v0.2H180V71.8z M183.2,67.4c0.2,0,0.4,0.1,0.6,0.1c1.6,0,2.3-0.8,2.3-2.4c0-1.7-0.3-2.4-1.8-2.4h-1.1V67.4z"/>
	<path class="st1" d="M189,71.8h0.2c0.5,0,0.8-0.4,0.9-0.8l3.2-8.8h0.2l3.7,9.6h0.7v0.2h-4.1v-0.2h1.1l-1-2.8h-2.7l-0.7,1.9
		c0,0.1-0.1,0.3-0.1,0.4c0,0.5,0.4,0.5,0.7,0.5h0.4v0.2H189V71.8z M193.7,68.7l-1.2-3.5h0l-1.2,3.5H193.7z"/>
	<path class="st1" d="M199.4,71.8h1.1v-9.1h-1.1v-0.2h4.3c1.5,0,3.9,0.2,3.9,2.3c0,1.7-1.8,2.2-3.2,2.3v0c2,0.2,3,1,3,2.4
		c0,2.1,0.2,2.4,0.8,2.4c0.1,0,0.3-0.1,0.5-0.2l0.1,0.2c-0.5,0.4-1.1,0.5-1.7,0.5c-1.5,0-1.8-1-1.8-2.5c0-2.2-0.5-2.5-1.9-2.6h-0.7
		v4.6h1.1v0.2h-4.4V71.8z M202.7,66.9h0.8c1.6-0.1,2-0.7,1.9-2.4c0-1.7-0.5-1.9-1.7-1.9h-1V66.9z"/>
	<path class="st1" d="M210.5,71.8h1.1v-9.1h-1.1v-0.2h4.3v0.2h-1.1v9.1h1.1v0.2h-4.3V71.8z"/>
	<path class="st1" d="M217.3,68.4h0.2c0.3,1.5,1.4,3.6,3.2,3.6c1.2,0,2-0.7,2-1.9c0-3-5.5-0.8-5.5-4.9c0-1.8,1.2-2.9,3-2.9
		c1.4,0,1.8,0.7,2.4,0.7c0.4,0,0.4-0.4,0.4-0.5h0.2v3.1h-0.2c-0.3-1.4-1.1-3-2.8-3c-1,0-1.8,0.7-1.8,1.8c0,2.6,5.5,0.6,5.5,4.6
		c0,2.1-1.2,3.4-3.1,3.4c-1.2,0-2.3-0.7-2.9-0.7c-0.4,0-0.5,0.2-0.5,0.5h-0.2V68.4z"/>
</g>
<g>
	<path d="M19.8,49.4h0.6c1.7-0.1,2.5-1.2,3.1-2.7l10.5-29h0.7l12.1,31.7H49v0.8H35.5v-0.8h3.6L35.8,40H27l-2.2,6.4
		c-0.1,0.4-0.3,0.9-0.3,1.4c0,1.5,1.3,1.7,2.2,1.7H28v0.8h-8.2V49.4z M35.4,39.2l-3.9-11.4h-0.1l-4,11.4H35.4z"/>
	<path d="M51,49.4h3.7V19.2H51v-0.8h15.6c9.5,0,16.1,6.2,16.1,16.1c0,5.7-3.5,15.7-15.8,15.7H51V49.4z M61.8,49.4h3.8
		c8.9,0,9.6-7.3,9.6-15.3c0-8.6-0.8-14.9-9-14.9h-4.3V49.4z"/>
	<path d="M85.9,49.4h3.7V19.2h-3.7v-0.8h14.2c5,0,13,0.8,13,7.5c0,5.5-6.1,7.3-10.6,7.6v0.1c6.6,0.6,9.9,3.2,10,8
		c0.1,7.1,0.7,7.8,2.5,7.8c0.5,0,1.1-0.3,1.6-0.6l0.3,0.7c-1.6,1.2-3.8,1.5-5.5,1.5c-4.8,0-6-3.4-6-8.4c0-7.3-1.8-8.4-6.4-8.5h-2.4
		v15.3h3.8v0.8H85.9V49.4z M96.6,33.3h2.5c5.2-0.3,6.5-2.3,6.4-7.9c0-5.6-1.8-6.2-5.6-6.2h-3.3V33.3z"/>
	<path d="M118.9,49.4h3.7V19.2h-3.7v-0.8h14.4v0.8h-3.7v30.2h3.7v0.8h-14.4V49.4z"/>
	<path d="M135.4,49.4h0.6c1.7-0.1,2.5-1.2,3.1-2.7l10.5-29h0.7l12.1,31.7h2.2v0.8h-13.5v-0.8h3.6l-3.3-9.4h-8.8l-2.2,6.4
		c-0.1,0.4-0.3,0.9-0.3,1.4c0,1.5,1.3,1.7,2.2,1.7h1.3v0.8h-8.2V49.4z M151.1,39.2l-3.9-11.4H147l-4,11.4H151.1z"/>
	<path d="M165.8,49.4h0.3h0.5c1.4,0,2.7-0.5,2.7-3.3V21.9l-2-2.7H166v-0.8h9.3l17.1,21.9h0.1V21.8c0-1.7-1.1-2.6-3.1-2.6h-0.9v-0.8
		h8.5v0.8h-0.6c-2,0-2.9,1.3-2.9,2.4v29.1h-1.9l-21.1-27.5h-0.1v23.1c0,2.6,1,3,3.5,3h0.4v0.8h-8.5V49.4z"/>
	<path d="M198.7,49.4h3.7V19.2h-3.7v-0.8H224v9h-0.8v-0.6c0-4.1-3-7.6-8.4-7.6h-5.3v13.8h3.1c2.9,0,4.5-1.7,4.5-6v-0.5h0.8v14.3
		h-0.8v-1c0-3.2-1.5-6-4.5-6h-3.1v15.6h6.5c7.4,0,8.5-6.2,8.5-8.7v-0.6h0.8v10.2h-26.5V49.4z"/>
	<path d="M241.5,49.4h0.2c3,0,3.5-1.9,3.5-3.9V19.2h-3.4v-0.8h11.6l7.5,21.8h0.1l7.6-21.8h10.9v0.8H276v30.2h3.4v0.8h-14.3v-0.8h3.9
		V20h-0.1l-10.5,30.2h-1.2l-10.8-30.8h-0.1v25.6c0,3.7,0.9,4.3,3.4,4.3h0.6v0.8h-8.8V49.4z"/>
	<path d="M287,43.5c2,0,3.7,1.6,3.7,3.7s-1.6,3.7-3.7,3.7s-3.7-1.6-3.7-3.7S284.9,43.5,287,43.5z"/>
</g>
</svg>
