<svg width="310" height="80" viewBox="0 0 310 80" fill="none" xmlns="http://www.w3.org/2000/svg">
<path d="M80.4712 70.6958H0.378906V4.43149H309.621V70.6958H229.03" stroke="white" stroke-width="0.75"/>
<path d="M86.7026 75.4788H87.7994V66.3812H86.7026V66.1321H94.4696V68.8524H94.2303V68.6332C94.2303 67.4474 93.2333 66.3812 91.309 66.3812H89.9231V70.5464H90.6908C90.9234 70.5824 91.1612 70.5638 91.3853 70.4921C91.6095 70.4204 91.8138 70.2974 91.9821 70.133C92.1505 69.9687 92.2782 69.7673 92.3552 69.5451C92.4322 69.3228 92.4563 69.0856 92.4257 68.8524V68.6033H92.6849V72.908H92.4456V72.6788C92.4456 71.4133 91.8972 70.8154 90.5612 70.8154H89.933V75.4988H91.289V75.7479H86.7026V75.4788Z" fill="white"/>
<path d="M96.1147 75.4788H97.2115V66.3812H96.1147V66.1321H100.572V66.3812H99.3452V75.4788H100.911C103.323 75.4788 103.902 74.313 103.902 72.7286V72.4596H104.141V75.728H96.1646L96.1147 75.4788Z" fill="white"/>
<path d="M106.225 75.4788H107.331V66.3812H106.225V66.1321H113.842V68.8524H113.623V68.693C113.622 68.3725 113.553 68.0557 113.422 67.7632C113.291 67.4707 113.1 67.209 112.861 66.9949C112.623 66.7808 112.342 66.6191 112.037 66.5202C111.732 66.4214 111.409 66.3876 111.09 66.4211H109.475V70.5862H110.472C111.35 70.5862 111.818 70.088 111.818 68.7926V68.6431H112.067V72.9478H111.818V72.6389C111.818 71.6425 111.35 70.8354 110.472 70.8354H109.475V75.5187H111.469C111.816 75.5368 112.164 75.4806 112.487 75.3538C112.811 75.2271 113.104 75.0327 113.347 74.7836C113.589 74.5346 113.776 74.2367 113.894 73.9098C114.012 73.5829 114.059 73.2345 114.032 72.8881V72.6788H114.281V75.7479H106.304L106.225 75.4788Z" fill="white"/>
<path d="M116.325 66.1321H120.602V66.3812H119.495V72.3599C119.495 74.1037 119.894 75.439 121.878 75.439C122.23 75.4449 122.578 75.375 122.9 75.2341C123.221 75.0933 123.509 74.8848 123.742 74.6228C123.976 74.3608 124.151 74.0515 124.254 73.7161C124.357 73.3806 124.387 73.0268 124.341 72.6788V67.5271C124.341 66.7399 124.122 66.3812 123.434 66.3812H123.035V66.1321H125.737V66.3812H125.378C124.889 66.3812 124.67 66.7399 124.67 67.5271V72.619C124.67 74.6119 123.583 75.9472 121.071 75.9472C118.847 75.9472 117.392 74.6617 117.392 72.5493V66.3812H116.325V66.1321Z" fill="white"/>
<path d="M127.412 75.4788H128.519V66.3812H127.412V66.1321H131.689C133.185 66.1321 135.618 66.3812 135.618 68.3841C135.618 70.0282 133.793 70.5763 132.417 70.6759C134.411 70.8553 135.408 71.6724 135.408 73.0873C135.408 75.2297 135.628 75.439 136.166 75.439C136.341 75.4181 136.508 75.3567 136.654 75.2596L136.754 75.4589C136.261 75.783 135.679 75.9465 135.089 75.9272C133.633 75.9272 133.275 74.9308 133.275 73.3962C133.275 71.1941 132.746 70.8752 131.34 70.8453H130.622V75.4589H131.769V75.708H127.392L127.412 75.4788ZM130.642 70.6161H131.4C132.975 70.5364 133.394 69.9385 133.324 68.2346C133.255 66.5307 132.796 66.3812 131.639 66.3812H130.642V70.6161Z" fill="white"/>
<path d="M138.469 75.4788H139.546V66.3812H138.449V66.1321H142.776V66.3812H141.68V75.4788H142.776V75.728H138.449L138.469 75.4788Z" fill="white"/>
<path d="M145.199 72.1208H145.448C145.767 73.6553 146.804 75.698 148.649 75.698C148.911 75.7247 149.176 75.6938 149.426 75.6076C149.675 75.5214 149.902 75.3819 150.092 75.1988C150.282 75.0157 150.43 74.7935 150.525 74.5476C150.62 74.3016 150.66 74.038 150.643 73.7749C150.643 70.7855 145.199 72.9478 145.199 68.8524C145.177 68.4566 145.239 68.0606 145.382 67.691C145.525 67.3213 145.746 66.9865 146.029 66.7091C146.313 66.4317 146.652 66.218 147.025 66.0823C147.397 65.9467 147.795 65.8923 148.19 65.9228C149.566 65.9228 150.005 66.6502 150.613 66.6502C151.022 66.6502 151.052 66.3015 151.052 66.1221H151.301V69.1912H151.052C150.713 67.7463 149.945 66.2018 148.23 66.2018C147.994 66.188 147.758 66.2232 147.536 66.305C147.314 66.3868 147.112 66.5136 146.941 66.6774C146.771 66.8411 146.636 67.0383 146.546 67.2566C146.455 67.4748 146.411 67.7094 146.415 67.9456C146.415 70.5763 151.939 68.5036 151.939 72.5492C151.939 74.6817 150.743 75.987 148.818 75.987C147.632 75.987 146.515 75.2795 145.967 75.2795C145.9 75.2734 145.832 75.2821 145.769 75.305C145.706 75.3278 145.648 75.3643 145.601 75.4119C145.553 75.4594 145.517 75.5168 145.494 75.5801C145.471 75.6433 145.462 75.7108 145.468 75.7778H145.219L145.199 72.1208Z" fill="white"/>
<path d="M156.027 75.4788H157.293V66.3812H156.735C154.96 66.3812 154.511 67.6168 154.302 69.1214H154.063V66.1321H162.647V69.1214H162.398C162.199 67.6168 161.75 66.3812 159.975 66.3812H159.417V75.4788H160.683V75.728H156.027V75.4788Z" fill="white"/>
<path d="M164.292 75.4788H165.399V66.3812H164.292V66.1321H171.92V68.8524H171.671V68.693C171.67 68.3725 171.601 68.0557 171.47 67.7632C171.339 67.4707 171.148 67.209 170.909 66.9949C170.671 66.7808 170.39 66.6191 170.085 66.5202C169.779 66.4214 169.457 66.3876 169.138 66.4211H167.523V70.5862H168.46C169.347 70.5862 169.806 70.088 169.806 68.7926V68.6431H170.055V72.9478H169.806V72.6389C169.806 71.6425 169.347 70.8354 168.46 70.8354H167.513V75.5187H169.507C169.855 75.5385 170.203 75.4834 170.527 75.3572C170.852 75.231 171.145 75.0366 171.388 74.7872C171.631 74.5378 171.818 74.2392 171.935 73.9116C172.053 73.5839 172.098 73.2349 172.069 72.8881V72.6788H172.319V75.7479H164.342L164.292 75.4788Z" fill="white"/>
<path d="M179.427 75.4788H180.534V66.3812H179.427V66.1321H184.293C186.676 66.1321 187.793 67.0189 187.793 68.693C187.793 70.367 186.187 71.4233 184.134 71.4233C183.641 71.4319 183.148 71.4119 182.658 71.3635V75.4788H184.004V75.728H179.427V75.4788ZM182.658 71.1044C182.843 71.1539 183.034 71.1774 183.226 71.1741C184.851 71.1741 185.509 70.3869 185.509 68.7826C185.509 67.1784 185.23 66.3812 183.765 66.3812H182.658V71.1044Z" fill="white"/>
<path d="M188.401 75.4788H188.58C188.804 75.4667 189.018 75.3795 189.186 75.2312C189.354 75.0829 189.468 74.8823 189.508 74.6617L192.668 65.9228H192.878L196.527 75.4788H197.195V75.7279H193.137V75.4788H194.224L193.227 72.6489H190.584L189.926 74.572C189.873 74.7021 189.843 74.8403 189.837 74.9806C189.837 75.429 190.215 75.4788 190.485 75.4788H190.874V75.7279H188.401V75.4788ZM193.117 72.3998L191.93 68.952L190.714 72.3998H193.117Z" fill="white"/>
<path d="M198.78 75.4788H199.887V66.3812H198.78V66.1321H203.067C204.563 66.1321 206.986 66.3812 206.986 68.3841C206.986 70.0282 205.161 70.5763 203.785 70.6759C205.779 70.8553 206.776 71.6724 206.776 73.0873C206.776 75.2297 206.996 75.439 207.544 75.439C207.719 75.4181 207.886 75.3567 208.033 75.2596L208.132 75.4589C207.639 75.783 207.057 75.9465 206.467 75.9272C205.012 75.9272 204.653 74.9308 204.653 73.3962C204.653 71.1941 204.124 70.8752 202.718 70.8453H201.991V75.4589H203.137V75.708H198.76L198.78 75.4788ZM202.01 70.6161H202.778C204.344 70.5364 204.772 69.9385 204.703 68.2346C204.633 66.5307 204.164 66.3812 203.008 66.3812H202.01V70.6161Z" fill="white"/>
<path d="M209.837 75.4788H210.944V66.3812H209.837V66.1321H214.174V66.3812H213.068V75.4788H214.174V75.728H209.837V75.4788Z" fill="white"/>
<path d="M216.577 72.1208H216.817C217.146 73.6553 218.182 75.698 220.017 75.698C220.279 75.7247 220.545 75.6938 220.794 75.6076C221.043 75.5214 221.271 75.3819 221.46 75.1988C221.65 75.0157 221.798 74.7935 221.893 74.5476C221.988 74.3016 222.028 74.038 222.011 73.7749C222.011 70.7855 216.577 72.9478 216.577 68.8524C216.555 68.4566 216.617 68.0606 216.76 67.691C216.904 67.3213 217.124 66.9865 217.407 66.7091C217.691 66.4317 218.03 66.218 218.403 66.0823C218.776 65.9467 219.173 65.8923 219.568 65.9228C220.944 65.9228 221.373 66.6502 221.991 66.6502C222.4 66.6502 222.43 66.3015 222.43 66.1221H222.669V69.1912H222.43C222.091 67.7463 221.323 66.2018 219.608 66.2018C219.372 66.188 219.136 66.2232 218.914 66.305C218.692 66.3868 218.49 66.5136 218.32 66.6774C218.149 66.8411 218.015 67.0383 217.924 67.2566C217.833 67.4748 217.789 67.7094 217.794 67.9456C217.794 70.5763 223.317 68.5036 223.317 72.5492C223.317 74.6817 222.111 75.987 220.196 75.987C219.01 75.987 217.883 75.2795 217.345 75.2795C217.277 75.2718 217.209 75.2793 217.144 75.3015C217.08 75.3237 217.021 75.3599 216.972 75.4077C216.923 75.4554 216.886 75.5134 216.862 75.5774C216.839 75.6414 216.83 75.7099 216.836 75.7778H216.597L216.577 72.1208Z" fill="white"/>
<path d="M19.6816 53.1881H20.2699C21.9848 53.0486 22.7924 51.9625 23.3308 50.4777L33.7997 21.5805H34.4678L46.5519 53.1881H48.8152V53.9952H35.3252V53.1881H38.9345L35.6443 43.7816H26.8803L24.7067 50.1389C24.5274 50.5663 24.4228 51.0214 24.3976 51.4842C24.3976 52.9689 25.6539 53.1582 26.5612 53.1582H27.8773V53.9653H19.6816V53.1881ZM35.2853 42.9943L31.357 31.5949H31.2673L27.2791 42.9943H35.2853Z" fill="white"/>
<path d="M50.8092 53.1881H54.4584V23.0752H50.8092V22.2681H66.363C75.795 22.2681 82.3755 28.3963 82.3755 38.3608C82.3755 44.0307 78.9058 53.9952 66.6422 53.9952H50.8092V53.1881ZM61.4975 53.1881H65.2663C74.1101 53.1881 74.8279 45.8841 74.8279 37.9523C74.8279 29.3429 74.0602 23.0752 65.8545 23.0752H61.5274L61.4975 53.1881Z" fill="white"/>
<path d="M85.566 53.1881H89.2152V23.0752H85.566V22.2681H99.724C104.709 22.2681 112.686 23.0752 112.686 29.7016C112.686 35.1622 106.643 36.9558 102.087 37.2747V37.3644C108.717 37.9523 111.968 40.5231 112.057 45.336C112.147 52.4109 112.775 53.0885 114.58 53.0885C115.161 53.0261 115.719 52.8245 116.205 52.5005L116.524 53.1781C114.897 54.2432 112.985 54.7888 111.04 54.7426C106.215 54.7426 105.058 51.3247 105.058 46.3624C105.058 39.1082 103.303 38.022 98.6572 37.9324H96.2543V53.1881H100.033V53.9952H85.566V53.1881ZM96.2543 37.0953H98.7768C103.961 36.8263 105.268 34.8433 105.128 29.2134C104.988 23.5834 103.373 23.0752 99.5446 23.0752H96.2543V37.0953Z" fill="white"/>
<path d="M118.528 53.1881H122.177V23.0752H118.528V22.2681H132.866V23.0752H129.216V53.1881H132.866V53.9952H118.528V53.1881Z" fill="white"/>
<path d="M134.989 53.1881H135.558C137.273 53.0486 138.09 51.9625 138.629 50.4777L149.088 21.5805H149.766L161.85 53.218H164.063V54.0251H150.633V53.218H154.242L150.952 43.7816H142.198L140.034 50.1389C139.847 50.5642 139.739 51.0201 139.715 51.4842C139.715 52.9689 140.982 53.1582 141.879 53.1582H143.145V53.9653H134.989V53.1881ZM150.583 42.9944L146.665 31.5949H146.575L142.587 42.9944H150.583Z" fill="white"/>
<path d="M165.289 53.1881H166.097C167.493 53.1881 168.799 52.6899 168.799 49.9397V25.7357L166.805 23.0752H165.469V22.2681H174.761L191.711 44.1303H191.801V25.6461C191.801 23.9321 190.724 23.0752 188.74 23.0752H187.882V22.2681H196.377V23.0752H195.749C193.755 23.0752 192.868 24.3905 192.868 25.5165V54.5333H190.973L169.956 27.1308H169.866V50.1688C169.866 52.7297 170.863 53.1582 173.385 53.1582H173.794V53.9653H165.27L165.289 53.1881Z" fill="white"/>
<path d="M198.112 53.1881H201.771V23.0752H198.112V22.2681H223.297V31.2362H222.48V30.6084C222.48 26.503 219.489 23.0752 214.095 23.0752H208.77V36.8662H211.881C214.812 36.8662 216.348 35.2021 216.348 30.8874V30.429H217.156V44.6684H216.348V43.6719C216.348 40.4733 214.812 37.6932 211.881 37.6932H208.77V53.1881H215.321C222.719 53.1881 223.806 47.0599 223.806 44.489V43.8513H224.613V53.9952H198.112V53.1881Z" fill="white"/>
<path d="M240.726 53.1881H240.905C243.896 53.1881 244.385 51.245 244.385 49.3119V23.0752H240.955V22.2681H252.501L259.978 44.0307H260.068L267.696 22.2681H278.563V23.0752H275.143V53.1881H278.523V53.9952H264.266V53.1881H268.164V23.8524H268.074L257.546 53.9952H256.329L245.551 23.3542H245.462V48.9033C245.462 52.5504 246.459 53.1881 248.841 53.1881H249.48V53.9952H240.726V53.1881Z" fill="white"/>
<path d="M286.111 47.2393C286.833 47.2393 287.538 47.4531 288.138 47.8539C288.738 48.2546 289.206 48.8242 289.482 49.4906C289.758 50.157 289.831 50.8903 289.69 51.5978C289.549 52.3052 289.202 52.9551 288.691 53.4651C288.181 53.9752 287.531 54.3225 286.823 54.4632C286.115 54.604 285.381 54.5317 284.714 54.2557C284.048 53.9797 283.478 53.5122 283.077 52.9125C282.676 52.3127 282.462 51.6076 282.462 50.8863C282.459 50.4066 282.552 49.9312 282.734 49.4875C282.917 49.0438 283.185 48.6407 283.525 48.3015C283.864 47.9624 284.267 47.6938 284.711 47.5115C285.155 47.3291 285.631 47.2366 286.111 47.2393V47.2393Z" fill="white"/>
</svg>
