<svg width="311" height="73" viewBox="0 0 311 73" fill="none" xmlns="http://www.w3.org/2000/svg">
<g clip-path="url(#clip0_96_129)">
<path d="M80.71 66.88H0.380005V0.380005H310.54V66.88H229.71" stroke="black" stroke-width="0.75"/>
<path d="M86.96 71.68H88.06V62.55H86.96V62.3H94.75V65.03H94.51V64.81C94.51 63.62 93.51 62.55 91.58 62.55H90.19V66.73H90.96C91.1932 66.7662 91.4317 66.7475 91.6565 66.6755C91.8813 66.6035 92.0863 66.4801 92.2551 66.3152C92.424 66.1502 92.5521 65.9482 92.6293 65.7251C92.7065 65.502 92.7307 65.264 92.7 65.03V64.78H92.96V69.1H92.72V68.87C92.72 67.6 92.17 67 90.83 67H90.2V71.7H91.56V71.95H86.96V71.68Z" fill="black"/>
<path d="M96.4 71.68H97.5V62.55H96.4V62.3H100.87V62.55H99.64V71.68H101.21C103.63 71.68 104.21 70.51 104.21 68.92V68.65H104.45V71.93H96.45L96.4 71.68Z" fill="black"/>
<path d="M106.54 71.68H107.65V62.55H106.54V62.3H114.18V65.03H113.96V64.87C113.959 64.5483 113.891 64.2305 113.759 63.9369C113.627 63.6434 113.436 63.3807 113.196 63.1658C112.957 62.951 112.675 62.7887 112.369 62.6895C112.063 62.5903 111.74 62.5564 111.42 62.59H109.8V66.77H110.8C111.68 66.77 112.15 66.27 112.15 64.97V64.82H112.4V69.14H112.15V68.83C112.15 67.83 111.68 67.02 110.8 67.02H109.8V71.72H111.8C112.148 71.7382 112.497 71.6817 112.821 71.5545C113.146 71.4273 113.44 71.2322 113.683 70.9823C113.927 70.7324 114.114 70.4334 114.232 70.1053C114.351 69.7773 114.398 69.4277 114.37 69.08V68.87H114.62V71.95H106.62L106.54 71.68Z" fill="black"/>
<path d="M116.67 62.3H120.96V62.55H119.85V68.55C119.85 70.3 120.25 71.64 122.24 71.64C122.592 71.6459 122.942 71.5758 123.264 71.4344C123.587 71.2931 123.875 71.0838 124.11 70.8209C124.344 70.558 124.519 70.2476 124.623 69.9109C124.726 69.5743 124.756 69.2192 124.71 68.87V63.7C124.71 62.91 124.49 62.55 123.8 62.55H123.4V62.3H126.11V62.55H125.75C125.26 62.55 125.04 62.91 125.04 63.7V68.81C125.04 70.81 123.95 72.15 121.43 72.15C119.2 72.15 117.74 70.86 117.74 68.74V62.55H116.67V62.3Z" fill="black"/>
<path d="M127.79 71.68H128.9V62.55H127.79V62.3H132.08C133.58 62.3 136.02 62.55 136.02 64.56C136.02 66.21 134.19 66.76 132.81 66.86C134.81 67.04 135.81 67.86 135.81 69.28C135.81 71.43 136.03 71.64 136.57 71.64C136.745 71.6191 136.913 71.5574 137.06 71.46L137.16 71.66C136.665 71.9852 136.082 72.1494 135.49 72.13C134.03 72.13 133.67 71.13 133.67 69.59C133.67 67.38 133.14 67.06 131.73 67.03H131.01V71.66H132.16V71.91H127.77L127.79 71.68ZM131.03 66.8H131.79C133.37 66.72 133.79 66.12 133.72 64.41C133.65 62.7 133.19 62.55 132.03 62.55H131.03V66.8Z" fill="black"/>
<path d="M138.88 71.68H139.96V62.55H138.86V62.3H143.2V62.55H142.1V71.68H143.2V71.93H138.86L138.88 71.68Z" fill="black"/>
<path d="M145.63 68.31H145.88C146.2 69.85 147.24 71.9 149.09 71.9C149.353 71.9267 149.619 71.8957 149.869 71.8092C150.119 71.7227 150.347 71.5827 150.538 71.399C150.728 71.2152 150.876 70.9922 150.972 70.7454C151.067 70.4986 151.107 70.234 151.09 69.97C151.09 66.97 145.63 69.14 145.63 65.03C145.607 64.6328 145.67 64.2354 145.814 63.8645C145.957 63.4935 146.179 63.1575 146.463 62.8791C146.747 62.6006 147.087 62.3862 147.461 62.2501C147.835 62.114 148.233 62.0594 148.63 62.09C150.01 62.09 150.45 62.82 151.06 62.82C151.47 62.82 151.5 62.47 151.5 62.29H151.75V65.37H151.5C151.16 63.92 150.39 62.37 148.67 62.37C148.433 62.3562 148.196 62.3914 147.974 62.4735C147.751 62.5557 147.548 62.6829 147.378 62.8472C147.207 63.0116 147.072 63.2094 146.981 63.4285C146.89 63.6475 146.845 63.8829 146.85 64.12C146.85 66.76 152.39 64.68 152.39 68.74C152.39 70.88 151.19 72.19 149.26 72.19C148.07 72.19 146.95 71.48 146.4 71.48C146.333 71.4738 146.265 71.4825 146.202 71.5055C146.138 71.5284 146.081 71.5651 146.033 71.6128C145.985 71.6605 145.948 71.7181 145.925 71.7816C145.903 71.8451 145.894 71.9128 145.9 71.98H145.65L145.63 68.31Z" fill="black"/>
<path d="M156.49 71.68H157.76V62.55H157.2C155.42 62.55 154.97 63.79 154.76 65.3H154.52V62.3H163.13V65.3H162.88C162.68 63.79 162.23 62.55 160.45 62.55H159.89V71.68H161.16V71.93H156.49V71.68Z" fill="black"/>
<path d="M164.78 71.68H165.89V62.55H164.78V62.3H172.43V65.03H172.18V64.87C172.179 64.5483 172.11 64.2305 171.979 63.9369C171.847 63.6434 171.656 63.3807 171.416 63.1658C171.177 62.951 170.895 62.7887 170.589 62.6895C170.283 62.5903 169.96 62.5564 169.64 62.59H168.02V66.77H168.96C169.85 66.77 170.31 66.27 170.31 64.97V64.82H170.56V69.14H170.31V68.83C170.31 67.83 169.85 67.02 168.96 67.02H168.01V71.72H170.01C170.359 71.7398 170.708 71.6845 171.033 71.5579C171.359 71.4313 171.653 71.2362 171.897 70.9859C172.141 70.7356 172.328 70.436 172.445 70.1072C172.563 69.7783 172.609 69.4281 172.58 69.08V68.87H172.83V71.95H164.83L164.78 71.68Z" fill="black"/>
<path d="M179.96 71.68H181.07V62.55H179.96V62.3H184.84C187.23 62.3 188.35 63.19 188.35 64.87C188.35 66.55 186.74 67.61 184.68 67.61C184.186 67.6186 183.692 67.5986 183.2 67.55V71.68H184.55V71.93H179.96V71.68ZM183.2 67.29C183.386 67.3397 183.578 67.3632 183.77 67.36C185.4 67.36 186.06 66.57 186.06 64.96C186.06 63.35 185.78 62.55 184.31 62.55H183.2V67.29Z" fill="black"/>
<path d="M188.96 71.68H189.14C189.365 71.6679 189.579 71.5803 189.747 71.4315C189.916 71.2827 190.03 71.0814 190.07 70.86L193.24 62.09H193.45L197.11 71.68H197.78V71.93H193.71V71.68H194.8L193.8 68.84H191.15L190.49 70.77C190.437 70.9006 190.406 71.0392 190.4 71.18C190.4 71.63 190.78 71.68 191.05 71.68H191.44V71.93H188.96V71.68ZM193.69 68.59L192.5 65.13L191.28 68.59H193.69Z" fill="black"/>
<path d="M199.37 71.68H200.48V62.55H199.37V62.3H203.67C205.17 62.3 207.6 62.55 207.6 64.56C207.6 66.21 205.77 66.76 204.39 66.86C206.39 67.04 207.39 67.86 207.39 69.28C207.39 71.43 207.61 71.64 208.16 71.64C208.335 71.6191 208.503 71.5574 208.65 71.46L208.75 71.66C208.255 71.9852 207.672 72.1494 207.08 72.13C205.62 72.13 205.26 71.13 205.26 69.59C205.26 67.38 204.73 67.06 203.32 67.03H202.59V71.66H203.74V71.91H199.35L199.37 71.68ZM202.61 66.8H203.38C204.95 66.72 205.38 66.12 205.31 64.41C205.24 62.7 204.77 62.55 203.61 62.55H202.61V66.8Z" fill="black"/>
<path d="M210.46 71.68H211.57V62.55H210.46V62.3H214.81V62.55H213.7V71.68H214.81V71.93H210.46V71.68Z" fill="black"/>
<path d="M217.22 68.31H217.46C217.79 69.85 218.83 71.9 220.67 71.9C220.933 71.9267 221.199 71.8957 221.449 71.8092C221.699 71.7227 221.927 71.5827 222.118 71.399C222.308 71.2152 222.456 70.9922 222.552 70.7454C222.647 70.4986 222.687 70.234 222.67 69.97C222.67 66.97 217.22 69.14 217.22 65.03C217.198 64.6328 217.26 64.2354 217.404 63.8645C217.547 63.4935 217.769 63.1575 218.053 62.8791C218.337 62.6006 218.677 62.3862 219.051 62.2501C219.425 62.114 219.823 62.0594 220.22 62.09C221.6 62.09 222.03 62.82 222.65 62.82C223.06 62.82 223.09 62.47 223.09 62.29H223.33V65.37H223.09C222.75 63.92 221.98 62.37 220.26 62.37C220.023 62.3562 219.786 62.3914 219.564 62.4735C219.342 62.5557 219.139 62.6829 218.968 62.8472C218.797 63.0116 218.662 63.2094 218.571 63.4285C218.48 63.6475 218.436 63.8829 218.44 64.12C218.44 66.76 223.98 64.68 223.98 68.74C223.98 70.88 222.77 72.19 220.85 72.19C219.66 72.19 218.53 71.48 217.99 71.48C217.922 71.4722 217.853 71.4798 217.789 71.502C217.724 71.5243 217.665 71.5607 217.616 71.6086C217.567 71.6565 217.53 71.7147 217.506 71.7789C217.483 71.8432 217.474 71.9119 217.48 71.98H217.24L217.22 68.31Z" fill="black"/>
<path d="M19.74 49.31H20.33C22.05 49.17 22.86 48.08 23.4 46.59L33.9 17.59H34.57L46.69 49.31H48.96V50.12H35.43V49.31H39.05L35.75 39.87H26.96L24.78 46.25C24.6001 46.6789 24.4952 47.1356 24.47 47.6C24.47 49.09 25.73 49.28 26.64 49.28H27.96V50.09H19.74V49.31ZM35.39 39.08L31.45 27.64H31.36L27.36 39.08H35.39Z" fill="#1D1D1B"/>
<path d="M50.96 49.31H54.62V19.09H50.96V18.28H66.56C76.02 18.28 82.62 24.43 82.62 34.43C82.62 40.12 79.14 50.12 66.84 50.12H50.96V49.31ZM61.68 49.31H65.46C74.33 49.31 75.05 41.98 75.05 34.02C75.05 25.38 74.28 19.09 66.05 19.09H61.71L61.68 49.31Z" fill="#1D1D1B"/>
<path d="M85.8199 49.31H89.4799V19.09H85.8199V18.28H100.02C105.02 18.28 113.02 19.09 113.02 25.74C113.02 31.22 106.96 33.02 102.39 33.34V33.43C109.04 34.02 112.3 36.6 112.39 41.43C112.48 48.53 113.11 49.21 114.92 49.21C115.503 49.1475 116.062 48.9451 116.55 48.62L116.87 49.3C115.238 50.3688 113.32 50.9164 111.37 50.87C106.53 50.87 105.37 47.44 105.37 42.46C105.37 35.18 103.61 34.09 98.9499 34H96.5399V49.31H100.33V50.12H85.8199V49.31ZM96.5399 33.16H99.0699C104.27 32.89 105.58 30.9 105.44 25.25C105.3 19.6 103.68 19.09 99.8399 19.09H96.5399V33.16Z" fill="#1D1D1B"/>
<path d="M118.88 49.31H122.54V19.09H118.88V18.28H133.26V19.09H129.6V49.31H133.26V50.12H118.88V49.31Z" fill="#1D1D1B"/>
<path d="M135.39 49.31H135.96C137.68 49.17 138.5 48.08 139.04 46.59L149.53 17.59H150.21L162.33 49.34H164.55V50.15H151.08V49.34H154.7L151.4 39.87H142.62L140.45 46.25C140.262 46.6768 140.154 47.1343 140.13 47.6C140.13 49.09 141.4 49.28 142.3 49.28H143.57V50.09H135.39V49.31ZM151.03 39.08L147.1 27.64H147.01L143.01 39.08H151.03Z" fill="#1D1D1B"/>
<path d="M165.78 49.31H166.59C167.99 49.31 169.3 48.81 169.3 46.05V21.76L167.3 19.09H165.96V18.28H175.28L192.28 40.22H192.37V21.67C192.37 19.95 191.29 19.09 189.3 19.09H188.44V18.28H196.96V19.09H196.33C194.33 19.09 193.44 20.41 193.44 21.54V50.66H191.54L170.46 23.16H170.37V46.28C170.37 48.85 171.37 49.28 173.9 49.28H174.31V50.09H165.76L165.78 49.31Z" fill="#1D1D1B"/>
<path d="M198.7 49.31H202.37V19.09H198.7V18.28H223.96V27.28H223.14V26.65C223.14 22.53 220.14 19.09 214.73 19.09H209.39V32.93H212.51C215.45 32.93 216.99 31.26 216.99 26.93V26.47H217.8V40.76H216.99V39.76C216.99 36.55 215.45 33.76 212.51 33.76H209.39V49.31H215.96C223.38 49.31 224.47 43.16 224.47 40.58V39.94H225.28V50.12H198.7V49.31Z" fill="#1D1D1B"/>
<path d="M241.44 49.31H241.62C244.62 49.31 245.11 47.36 245.11 45.42V19.09H241.67V18.28H253.25L260.75 40.12H260.84L268.49 18.28H279.39V19.09H275.96V49.31H279.35V50.12H265.05V49.31H268.96V19.87H268.87L258.31 50.12H257.09L246.28 19.37H246.19V45.01C246.19 48.67 247.19 49.31 249.58 49.31H250.22V50.12H241.44V49.31Z" fill="#1D1D1B"/>
<path d="M286.96 43.34C287.684 43.34 288.391 43.5546 288.993 43.9568C289.595 44.359 290.064 44.9306 290.341 45.5994C290.618 46.2681 290.691 47.0041 290.55 47.714C290.408 48.424 290.06 49.0761 289.548 49.588C289.036 50.0999 288.384 50.4484 287.674 50.5897C286.964 50.7309 286.228 50.6584 285.559 50.3814C284.891 50.1044 284.319 49.6353 283.917 49.0334C283.515 48.4315 283.3 47.7239 283.3 47C283.297 46.5186 283.39 46.0415 283.573 45.5962C283.756 45.151 284.026 44.7465 284.366 44.4061C284.706 44.0657 285.111 43.7962 285.556 43.6132C286.001 43.4302 286.479 43.3373 286.96 43.34V43.34Z" fill="#1D1D1B"/>
</g>
<defs>
<clipPath id="clip0_96_129">
<rect width="310.92" height="72.15" fill="white"/>
</clipPath>
</defs>
</svg>
